<svg xmlns="http://www.w3.org/2000/svg" width="1180" height="760" viewBox="0 0 1180 760">
<style>
  .axis { stroke: #202020; stroke-width: 1; }
  .grid { stroke: #dddddd; stroke-width: 1; }
  .title { font-family: Helvetica, Arial, sans-serif; font-size: 16px; font-weight: 600; fill: #111111; }
  .label { font-family: Helvetica, Arial, sans-serif; font-size: 12px; fill: #222222; }
  .legend-h { font-family: Helvetica, Arial, sans-serif; font-size: 12px; font-weight: 600; fill: #222222; }
  .legend-row { font-family: Helvetica, Arial, sans-serif; font-size: 11px; fill: #333333; }
  .rass { fill: none; stroke: #0077b6; stroke-width: 2; }
  .dalr { fill: none; stroke: #d1495b; stroke-width: 1.5; stroke-dasharray: 6 4; stroke-opacity: 0.45; }
  .rass-point { fill: #0077b6; }
  .station { fill: #f4a261; stroke: #8b4c12; stroke-width: 1; }
  .barb-shaft { stroke: #1f2937; stroke-width: 1.3; }
  .barb-feather { stroke: #1f2937; stroke-width: 1.2; }
  .barb-flag { fill: #1f2937; stroke: #1f2937; stroke-width: 1; }
  .station-label { font-family: Helvetica, Arial, sans-serif; font-size: 11px; fill: #444444; }
</style>
<rect x="0" y="0" width="1180" height="760" fill="#ffffff" />
<text class="title" x="90" y="28">Estimated LCL @ VOR: 3581 ft - winds 171, 6g15mph (16:00 PST)</text>
<line class="grid" x1="90" y1="510.00" x2="1110" y2="510.00" />
<text class="label" x="82" y="514.00" text-anchor="end">0</text>
<line class="grid" x1="90" y1="452.50" x2="1110" y2="452.50" />
<text class="label" x="82" y="456.50" text-anchor="end">500</text>
<line class="grid" x1="90" y1="395.00" x2="1110" y2="395.00" />
<text class="label" x="82" y="399.00" text-anchor="end">1000</text>
<line class="grid" x1="90" y1="337.50" x2="1110" y2="337.50" />
<text class="label" x="82" y="341.50" text-anchor="end">1500</text>
<line class="grid" x1="90" y1="280.00" x2="1110" y2="280.00" />
<text class="label" x="82" y="284.00" text-anchor="end">2000</text>
<line class="grid" x1="90" y1="222.50" x2="1110" y2="222.50" />
<text class="label" x="82" y="226.50" text-anchor="end">2500</text>
<line class="grid" x1="90" y1="165.00" x2="1110" y2="165.00" />
<text class="label" x="82" y="169.00" text-anchor="end">3000</text>
<line class="grid" x1="90" y1="107.50" x2="1110" y2="107.50" />
<text class="label" x="82" y="111.50" text-anchor="end">3500</text>
<line class="grid" x1="90" y1="50.00" x2="1110" y2="50.00" />
<text class="label" x="82" y="54.00" text-anchor="end">4000</text>
<line class="grid" x1="158.71" y1="50" x2="158.71" y2="510" />
<text class="label" x="158.71" y="528" text-anchor="middle">40.0</text>
<line class="grid" x1="382.02" y1="50" x2="382.02" y2="510" />
<text class="label" x="382.02" y="528" text-anchor="middle">45.0</text>
<line class="grid" x1="605.32" y1="50" x2="605.32" y2="510" />
<text class="label" x="605.32" y="528" text-anchor="middle">50.0</text>
<line class="grid" x1="828.63" y1="50" x2="828.63" y2="510" />
<text class="label" x="828.63" y="528" text-anchor="middle">55.0</text>
<line class="grid" x1="1051.94" y1="50" x2="1051.94" y2="510" />
<text class="label" x="1051.94" y="528" text-anchor="middle">60.0</text>
<line class="axis" x1="90" y1="50" x2="90" y2="510" />
<line class="axis" x1="90" y1="510" x2="1110" y2="510" />
<text class="label" x="600.00" y="546" text-anchor="middle">Temperature (F)</text>
<text class="label" x="26" y="280.00" text-anchor="middle" transform="rotate(-90 26 280.00)">Altitude (ft)</text>
<path class="rass" d="M918.77,434.54 L911.12,396.81 L874.06,359.08 L870.61,321.35 L785.02,283.62 L710.29,245.89 L670.48,208.16 L628.98,170.43 L572.55,132.70 L530.06,94.97" />
<path class="dalr" d="M1077.02,510.00 L112.33,50.00" />
<circle class="rass-point" cx="918.77" cy="434.54" r="2" />
<circle class="rass-point" cx="911.12" cy="396.81" r="2" />
<circle class="rass-point" cx="874.06" cy="359.08" r="2" />
<circle class="rass-point" cx="870.61" cy="321.35" r="2" />
<circle class="rass-point" cx="785.02" cy="283.62" r="2" />
<circle class="rass-point" cx="710.29" cy="245.89" r="2" />
<circle class="rass-point" cx="670.48" cy="208.16" r="2" />
<circle class="rass-point" cx="628.98" cy="170.43" r="2" />
<circle class="rass-point" cx="572.55" cy="132.70" r="2" />
<circle class="rass-point" cx="530.06" cy="94.97" r="2" />
<rect class="station" x="513.00" y="53.87" width="6" height="6" />
<line class="barb-shaft" x1="516.00" y1="56.87" x2="521.86" y2="73.89" />
<line class="barb-feather" x1="521.86" y1="73.89" x2="514.59" y2="74.27" />
<text class="station-label" x="522.00" y="64.00" text-anchor="start">La Cumbre</text>
<rect class="station" x="407.14" y="103.33" width="6" height="6" />
<line class="barb-shaft" x1="410.14" y1="106.33" x2="412.95" y2="124.11" />
<line class="barb-feather" x1="412.95" y1="124.11" x2="408.81" y2="123.55" />
<text class="station-label" x="416.14" y="110.33" text-anchor="start">VOR</text>
<rect class="station" x="589.78" y="236.18" width="6" height="6" />
<line class="barb-shaft" x1="592.78" y1="239.18" x2="607.62" y2="228.98" />
<line class="barb-feather" x1="607.62" y1="228.98" x2="608.89" y2="232.96" />
<text class="station-label" x="598.78" y="243.18" text-anchor="start">AntFarm</text>
<rect class="station" x="825.65" y="320.80" width="6" height="6" />
<line class="barb-shaft" x1="828.65" y1="323.80" x2="824.91" y2="341.41" />
<line class="barb-feather" x1="824.91" y1="341.41" x2="821.25" y2="339.41" />
<text class="station-label" x="834.65" y="327.80" text-anchor="start">Montecito</text>
<rect class="station" x="943.99" y="417.32" width="6" height="6" />
<circle class="barb-shaft" cx="946.99" cy="420.32" r="2.5" fill="none" />
<text class="station-label" x="952.99" y="424.32" text-anchor="start">Parma</text>
<rect class="station" x="948.01" y="410.07" width="6" height="6" />
<line class="barb-shaft" x1="951.01" y1="413.07" x2="964.02" y2="425.51" />
<line class="barb-feather" x1="964.02" y1="425.51" x2="960.39" y2="427.57" />
<text class="station-label" x="957.01" y="441.07" text-anchor="start">Romero Cyn</text>
<rect class="station" x="1084.67" y="505.87" width="6" height="6" />
<line class="barb-shaft" x1="1087.67" y1="508.87" x2="1072.08" y2="517.87" />
<line class="barb-feather" x1="1072.08" y1="517.87" x2="1071.12" y2="513.80" />
<text class="station-label" x="1081.67" y="510.00" text-anchor="end">Airport</text>
<line class="rass" x1="90" y1="562" x2="114" y2="562" />
<text class="label" x="120" y="566">RASS @ 15:55</text>
<line class="dalr" x1="310" y1="562" x2="334" y2="562" />
<text class="label" x="340" y="566">DALR (5.4 F/1000 ft)</text>
<text class="legend-h" x="90" y="596">Stations</text>
<text class="legend-row" x="90" y="612">La Cumbre @ 16:14 - 48.0F, winds 161, 13g18mph</text>
<text class="legend-row" x="90" y="626">VOR @ 16:00 - 45.6F, winds 171, 6g15mph</text>
<text class="legend-row" x="90" y="640">AntFarm @ 16:00 - 49.7F, winds 056, 5g9mph</text>
<text class="legend-row" x="90" y="654">Montecito @ 15:47 - 55.0F, winds 192, 5g15mph</text>
<text class="legend-row" x="90" y="668">SM Pass @ 15:06 - 57.0F, winds 139, 8g17mph</text>
<text class="legend-row" x="90" y="682">Parma @ 16:00 - 57.6F, winds 200, 2g7mph</text>
<text class="legend-row" x="90" y="696">Romero Cyn @ 16:00 - 57.7F, winds 134, 5g9mph</text>
<text class="legend-row" x="90" y="710">Airport @ 16:05 - 60.8F, winds 240, 6g17mph</text>
</svg>