<svg xmlns="http://www.w3.org/2000/svg" width="1180" height="760" viewBox="0 0 1180 760">
<style>
  .axis { stroke: #202020; stroke-width: 1; }
  .grid { stroke: #dddddd; stroke-width: 1; }
  .title { font-family: Helvetica, Arial, sans-serif; font-size: 16px; font-weight: 600; fill: #111111; }
  .label { font-family: Helvetica, Arial, sans-serif; font-size: 12px; fill: #222222; }
  .legend-h { font-family: Helvetica, Arial, sans-serif; font-size: 12px; font-weight: 600; fill: #222222; }
  .legend-row { font-family: Helvetica, Arial, sans-serif; font-size: 11px; fill: #333333; }
  .rass { fill: none; stroke: #0077b6; stroke-width: 2; }
  .dalr { fill: none; stroke: #d1495b; stroke-width: 2; stroke-dasharray: 6 4; }
  .rass-point { fill: #0077b6; }
  .station { fill: #f4a261; stroke: #8b4c12; stroke-width: 1; }
  .station-label { font-family: Helvetica, Arial, sans-serif; font-size: 11px; fill: #444444; }
</style>
<rect x="0" y="0" width="1180" height="760" fill="#ffffff" />
<text class="title" x="90" y="28">Estimated LCL @ VOR: 3618 ft - winds 171, 7g13mph (15:30 PST)</text>
<line class="grid" x1="90" y1="510.00" x2="1110" y2="510.00" />
<text class="label" x="82" y="514.00" text-anchor="end">0</text>
<line class="grid" x1="90" y1="452.50" x2="1110" y2="452.50" />
<text class="label" x="82" y="456.50" text-anchor="end">500</text>
<line class="grid" x1="90" y1="395.00" x2="1110" y2="395.00" />
<text class="label" x="82" y="399.00" text-anchor="end">1000</text>
<line class="grid" x1="90" y1="337.50" x2="1110" y2="337.50" />
<text class="label" x="82" y="341.50" text-anchor="end">1500</text>
<line class="grid" x1="90" y1="280.00" x2="1110" y2="280.00" />
<text class="label" x="82" y="284.00" text-anchor="end">2000</text>
<line class="grid" x1="90" y1="222.50" x2="1110" y2="222.50" />
<text class="label" x="82" y="226.50" text-anchor="end">2500</text>
<line class="grid" x1="90" y1="165.00" x2="1110" y2="165.00" />
<text class="label" x="82" y="169.00" text-anchor="end">3000</text>
<line class="grid" x1="90" y1="107.50" x2="1110" y2="107.50" />
<text class="label" x="82" y="111.50" text-anchor="end">3500</text>
<line class="grid" x1="90" y1="50.00" x2="1110" y2="50.00" />
<text class="label" x="82" y="54.00" text-anchor="end">4000</text>
<line class="grid" x1="279.95" y1="50" x2="279.95" y2="510" />
<text class="label" x="279.95" y="528" text-anchor="middle">45.0</text>
<line class="grid" x1="505.61" y1="50" x2="505.61" y2="510" />
<text class="label" x="505.61" y="528" text-anchor="middle">50.0</text>
<line class="grid" x1="731.28" y1="50" x2="731.28" y2="510" />
<text class="label" x="731.28" y="528" text-anchor="middle">55.0</text>
<line class="grid" x1="956.94" y1="50" x2="956.94" y2="510" />
<text class="label" x="956.94" y="528" text-anchor="middle">60.0</text>
<line class="axis" x1="90" y1="50" x2="90" y2="510" />
<line class="axis" x1="90" y1="510" x2="1110" y2="510" />
<text class="label" x="600.00" y="546" text-anchor="middle">Temperature (F)</text>
<text class="label" x="26" y="280.00" text-anchor="middle" transform="rotate(-90 26 280.00)">Altitude (ft)</text>
<path class="rass" d="M927.51,434.54 L873.36,396.81 L804.34,359.08 L755.83,321.35 L676.14,283.62 L634.90,245.89 L609.83,208.16 L581.13,170.43" />
<path class="dalr" d="M1087.43,510.00 L112.57,50.00" />
<circle class="rass-point" cx="927.51" cy="434.54" r="2" />
<circle class="rass-point" cx="873.36" cy="396.81" r="2" />
<circle class="rass-point" cx="804.34" cy="359.08" r="2" />
<circle class="rass-point" cx="755.83" cy="321.35" r="2" />
<circle class="rass-point" cx="676.14" cy="283.62" r="2" />
<circle class="rass-point" cx="634.90" cy="245.89" r="2" />
<circle class="rass-point" cx="609.83" cy="208.16" r="2" />
<circle class="rass-point" cx="581.13" cy="170.43" r="2" />
<rect class="station" x="412.35" y="53.87" width="6" height="6" />
<text class="station-label" x="421.35" y="64.00" text-anchor="start">La Cumbre</text>
<rect class="station" x="310.32" y="103.33" width="6" height="6" />
<text class="station-label" x="319.32" y="110.33" text-anchor="start">VOR</text>
<rect class="station" x="498.06" y="236.18" width="6" height="6" />
<text class="station-label" x="507.06" y="243.18" text-anchor="start">AntFarm</text>
<rect class="station" x="818.55" y="335.52" width="6" height="6" />
<text class="station-label" x="827.55" y="342.52" text-anchor="start">SM Pass</text>
<rect class="station" x="905.64" y="417.32" width="6" height="6" />
<text class="station-label" x="914.64" y="424.32" text-anchor="start">Parma</text>
<rect class="station" x="865.91" y="410.07" width="6" height="6" />
<text class="station-label" x="874.91" y="441.07" text-anchor="start">Romero Cyn</text>
<rect class="station" x="990.05" y="505.87" width="6" height="6" />
<text class="station-label" x="999.05" y="510.00" text-anchor="start">Airport</text>
<line class="rass" x1="90" y1="562" x2="114" y2="562" />
<text class="label" x="120" y="566">RASS @ 14:55</text>
<line class="dalr" x1="310" y1="562" x2="334" y2="562" />
<text class="label" x="340" y="566">DALR (5.4 F/1000 ft)</text>
<text class="legend-h" x="90" y="596">Stations (PST)</text>
<text class="legend-row" x="90" y="612">La Cumbre @ 15:50 - 48.0F, winds 169, 17g20mph</text>
<text class="legend-row" x="90" y="626">VOR @ 15:30 - 45.7F, winds 171, 7g13mph</text>
<text class="legend-row" x="90" y="640">AntFarm @ 15:30 - 49.9F, winds 060, 8g12mph</text>
<text class="legend-row" x="90" y="654">Montecito @ 14:47 - 55.0F, winds 212, 2g17mph</text>
<text class="legend-row" x="90" y="668">SM Pass @ 15:06 - 57.0F, winds 139, 8g17mph</text>
<text class="legend-row" x="90" y="682">Parma @ 15:30 - 58.9F, winds 199, 2g7mph</text>
<text class="legend-row" x="90" y="696">Romero Cyn @ 15:30 - 58.0F, winds 159, 5g12mph</text>
<text class="legend-row" x="90" y="710">Airport @ 15:40 - 60.8F, winds 220, 6g17mph</text>
</svg>