<svg xmlns="http://www.w3.org/2000/svg" width="1180" height="760" viewBox="0 0 1180 760">
<style>
  .axis { stroke: #202020; stroke-width: 1; }
  .grid { stroke: #dddddd; stroke-width: 1; }
  .title { font-family: Helvetica, Arial, sans-serif; font-size: 16px; font-weight: 600; fill: #111111; }
  .label { font-family: Helvetica, Arial, sans-serif; font-size: 12px; fill: #222222; }
  .legend-h { font-family: Helvetica, Arial, sans-serif; font-size: 12px; font-weight: 600; fill: #222222; }
  .legend-row { font-family: Helvetica, Arial, sans-serif; font-size: 11px; fill: #333333; }
  .rass { fill: none; stroke: #0077b6; stroke-width: 2; }
  .dalr { fill: none; stroke: #d1495b; stroke-width: 1.5; stroke-dasharray: 6 4; stroke-opacity: 0.45; }
  .rass-point { fill: #0077b6; }
  .station { fill: #f4a261; stroke: #8b4c12; stroke-width: 1; }
  .barb-shaft { stroke: #1f2937; stroke-width: 1.3; }
  .barb-feather { stroke: #1f2937; stroke-width: 1.2; }
  .barb-flag { fill: #1f2937; stroke: #1f2937; stroke-width: 1; }
  .station-label { font-family: Helvetica, Arial, sans-serif; font-size: 11px; fill: #444444; }
</style>
<rect x="0" y="0" width="1180" height="760" fill="#ffffff" />
<text class="title" x="90" y="28">Estimated LCL @ VOR: 3558 ft - winds 178, 7g14mph (17:00 PST)</text>
<line class="grid" x1="90" y1="510.00" x2="1110" y2="510.00" />
<text class="label" x="82" y="514.00" text-anchor="end">0</text>
<line class="grid" x1="90" y1="452.50" x2="1110" y2="452.50" />
<text class="label" x="82" y="456.50" text-anchor="end">500</text>
<line class="grid" x1="90" y1="395.00" x2="1110" y2="395.00" />
<text class="label" x="82" y="399.00" text-anchor="end">1000</text>
<line class="grid" x1="90" y1="337.50" x2="1110" y2="337.50" />
<text class="label" x="82" y="341.50" text-anchor="end">1500</text>
<line class="grid" x1="90" y1="280.00" x2="1110" y2="280.00" />
<text class="label" x="82" y="284.00" text-anchor="end">2000</text>
<line class="grid" x1="90" y1="222.50" x2="1110" y2="222.50" />
<text class="label" x="82" y="226.50" text-anchor="end">2500</text>
<line class="grid" x1="90" y1="165.00" x2="1110" y2="165.00" />
<text class="label" x="82" y="169.00" text-anchor="end">3000</text>
<line class="grid" x1="90" y1="107.50" x2="1110" y2="107.50" />
<text class="label" x="82" y="111.50" text-anchor="end">3500</text>
<line class="grid" x1="90" y1="50.00" x2="1110" y2="50.00" />
<text class="label" x="82" y="54.00" text-anchor="end">4000</text>
<line class="grid" x1="167.97" y1="50" x2="167.97" y2="510" />
<text class="label" x="167.97" y="528" text-anchor="middle">40.0</text>
<line class="grid" x1="393.63" y1="50" x2="393.63" y2="510" />
<text class="label" x="393.63" y="528" text-anchor="middle">45.0</text>
<line class="grid" x1="619.29" y1="50" x2="619.29" y2="510" />
<text class="label" x="619.29" y="528" text-anchor="middle">50.0</text>
<line class="grid" x1="844.96" y1="50" x2="844.96" y2="510" />
<text class="label" x="844.96" y="528" text-anchor="middle">55.0</text>
<line class="grid" x1="1070.62" y1="50" x2="1070.62" y2="510" />
<text class="label" x="1070.62" y="528" text-anchor="middle">60.0</text>
<line class="axis" x1="90" y1="50" x2="90" y2="510" />
<line class="axis" x1="90" y1="510" x2="1110" y2="510" />
<text class="label" x="600.00" y="546" text-anchor="middle">Temperature (F)</text>
<text class="label" x="26" y="280.00" text-anchor="middle" transform="rotate(-90 26 280.00)">Altitude (ft)</text>
<path class="rass" d="M927.51,434.54 L881.13,396.81 L849.53,359.08 L818.57,321.35 L787.62,283.62 L744.16,245.89 L680.14,208.16 L605.00,170.43 L542.60,132.70 L512.22,94.97 L496.70,57.24" />
<path class="dalr" d="M1087.43,510.00 L112.57,50.00" />
<circle class="rass-point" cx="927.51" cy="434.54" r="2" />
<circle class="rass-point" cx="881.13" cy="396.81" r="2" />
<circle class="rass-point" cx="849.53" cy="359.08" r="2" />
<circle class="rass-point" cx="818.57" cy="321.35" r="2" />
<circle class="rass-point" cx="787.62" cy="283.62" r="2" />
<circle class="rass-point" cx="744.16" cy="245.89" r="2" />
<circle class="rass-point" cx="680.14" cy="208.16" r="2" />
<circle class="rass-point" cx="605.00" cy="170.43" r="2" />
<circle class="rass-point" cx="542.60" cy="132.70" r="2" />
<circle class="rass-point" cx="512.22" cy="94.97" r="2" />
<circle class="rass-point" cx="496.70" cy="57.24" r="2" />
<rect class="station" x="435.76" y="53.87" width="6" height="6" />
<line class="barb-shaft" x1="438.76" y1="56.87" x2="440.64" y2="74.77" />
<line class="barb-feather" x1="440.64" y1="74.77" x2="433.47" y2="73.51" />
<text class="station-label" x="444.76" y="64.00" text-anchor="start">La Cumbre</text>
<rect class="station" x="385.25" y="103.33" width="6" height="6" />
<line class="barb-shaft" x1="388.25" y1="106.33" x2="389.00" y2="124.31" />
<line class="barb-feather" x1="389.00" y1="124.31" x2="384.96" y2="123.28" />
<text class="station-label" x="394.25" y="110.33" text-anchor="start">VOR</text>
<rect class="station" x="575.19" y="236.18" width="6" height="6" />
<line class="barb-shaft" x1="578.19" y1="239.18" x2="593.82" y2="230.26" />
<line class="barb-feather" x1="593.82" y1="230.26" x2="594.76" y2="234.33" />
<text class="station-label" x="584.19" y="243.18" text-anchor="start">AntFarm</text>
<rect class="station" x="706.55" y="320.80" width="6" height="6" />
<line class="barb-shaft" x1="709.55" y1="323.80" x2="702.52" y2="340.37" />
<line class="barb-feather" x1="702.52" y1="340.37" x2="699.30" y2="337.71" />
<text class="station-label" x="715.55" y="327.80" text-anchor="start">Montecito</text>
<rect class="station" x="913.71" y="417.32" width="6" height="6" />
<circle class="barb-shaft" cx="916.71" cy="420.32" r="2.5" fill="none" />
<text class="station-label" x="922.71" y="424.32" text-anchor="start">Parma</text>
<rect class="station" x="886.66" y="410.07" width="6" height="6" />
<circle class="barb-shaft" cx="889.66" cy="413.07" r="2.5" fill="none" />
<text class="station-label" x="895.66" y="441.07" text-anchor="start">Romero Cyn</text>
<rect class="station" x="941.25" y="505.87" width="6" height="6" />
<line class="barb-shaft" x1="944.25" y1="508.87" x2="927.33" y2="515.02" />
<line class="barb-feather" x1="927.33" y1="515.02" x2="927.09" y2="510.86" />
<text class="station-label" x="950.25" y="510.00" text-anchor="start">Airport</text>
<line class="rass" x1="90" y1="562" x2="114" y2="562" />
<text class="label" x="120" y="566">RASS @ 16:55</text>
<line class="dalr" x1="310" y1="562" x2="334" y2="562" />
<text class="label" x="340" y="566">DALR (5.4 F/1000 ft)</text>
<text class="legend-h" x="90" y="596">Stations</text>
<text class="legend-row" x="90" y="612">La Cumbre @ 17:18 - 46.0F, winds 174, 12g21mph</text>
<text class="legend-row" x="90" y="626">VOR @ 17:00 - 44.9F, winds 178, 7g14mph</text>
<text class="legend-row" x="90" y="640">AntFarm @ 17:00 - 49.1F, winds 060, 7g10mph</text>
<text class="legend-row" x="90" y="654">Montecito @ 16:47 - 52.0F, winds 203, 3g12mph</text>
<text class="legend-row" x="90" y="668">SM Pass @ 16:06 - 55.0F, winds 152, 4g16mph</text>
<text class="legend-row" x="90" y="682">Parma @ 17:00 - 56.6F, winds 204, 1g4mph</text>
<text class="legend-row" x="90" y="696">Romero Cyn @ 17:00 - 56.0F, winds 136, 3g7mph</text>
<text class="legend-row" x="90" y="710">Airport @ 17:05 - 57.2F, winds 250, 3g17mph</text>
</svg>