<svg xmlns="http://www.w3.org/2000/svg" width="1180" height="760" viewBox="0 0 1180 760">
<style>
  .axis { stroke: #202020; stroke-width: 1; }
  .grid { stroke: #dddddd; stroke-width: 1; }
  .title { font-family: Helvetica, Arial, sans-serif; font-size: 16px; font-weight: 600; fill: #111111; }
  .label { font-family: Helvetica, Arial, sans-serif; font-size: 12px; fill: #222222; }
  .legend-h { font-family: Helvetica, Arial, sans-serif; font-size: 12px; font-weight: 600; fill: #222222; }
  .legend-row { font-family: Helvetica, Arial, sans-serif; font-size: 11px; fill: #333333; }
  .rass { fill: none; stroke: #0077b6; stroke-width: 2; }
  .dalr { fill: none; stroke: #d1495b; stroke-width: 1.5; stroke-dasharray: 6 4; stroke-opacity: 0.45; }
  .rass-point { fill: #0077b6; }
  .station { fill: #f4a261; stroke: #8b4c12; stroke-width: 1; }
  .barb-shaft { stroke: #1f2937; stroke-width: 1.3; }
  .barb-feather { stroke: #1f2937; stroke-width: 1.2; }
  .barb-flag { fill: #1f2937; stroke: #1f2937; stroke-width: 1; }
  .station-label { font-family: Helvetica, Arial, sans-serif; font-size: 11px; fill: #444444; }
</style>
<rect x="0" y="0" width="1180" height="760" fill="#ffffff" />
<text class="title" x="90" y="28">Estimated LCL @ VOR: 3553 ft - winds 157, 8g16mph (17:10 PST)</text>
<line class="grid" x1="90" y1="510.00" x2="1110" y2="510.00" />
<text class="label" x="82" y="514.00" text-anchor="end">0</text>
<line class="grid" x1="90" y1="452.50" x2="1110" y2="452.50" />
<text class="label" x="82" y="456.50" text-anchor="end">500</text>
<line class="grid" x1="90" y1="395.00" x2="1110" y2="395.00" />
<text class="label" x="82" y="399.00" text-anchor="end">1000</text>
<line class="grid" x1="90" y1="337.50" x2="1110" y2="337.50" />
<text class="label" x="82" y="341.50" text-anchor="end">1500</text>
<line class="grid" x1="90" y1="280.00" x2="1110" y2="280.00" />
<text class="label" x="82" y="284.00" text-anchor="end">2000</text>
<line class="grid" x1="90" y1="222.50" x2="1110" y2="222.50" />
<text class="label" x="82" y="226.50" text-anchor="end">2500</text>
<line class="grid" x1="90" y1="165.00" x2="1110" y2="165.00" />
<text class="label" x="82" y="169.00" text-anchor="end">3000</text>
<line class="grid" x1="90" y1="107.50" x2="1110" y2="107.50" />
<text class="label" x="82" y="111.50" text-anchor="end">3500</text>
<line class="grid" x1="90" y1="50.00" x2="1110" y2="50.00" />
<text class="label" x="82" y="54.00" text-anchor="end">4000</text>
<line class="grid" x1="167.94" y1="50" x2="167.94" y2="510" />
<text class="label" x="167.94" y="528" text-anchor="middle">40.0</text>
<line class="grid" x1="393.61" y1="50" x2="393.61" y2="510" />
<text class="label" x="393.61" y="528" text-anchor="middle">45.0</text>
<line class="grid" x1="619.27" y1="50" x2="619.27" y2="510" />
<text class="label" x="619.27" y="528" text-anchor="middle">50.0</text>
<line class="grid" x1="844.93" y1="50" x2="844.93" y2="510" />
<text class="label" x="844.93" y="528" text-anchor="middle">55.0</text>
<line class="grid" x1="1070.60" y1="50" x2="1070.60" y2="510" />
<text class="label" x="1070.60" y="528" text-anchor="middle">60.0</text>
<line class="axis" x1="90" y1="50" x2="90" y2="510" />
<line class="axis" x1="90" y1="510" x2="1110" y2="510" />
<text class="label" x="600.00" y="546" text-anchor="middle">Temperature (F)</text>
<text class="label" x="26" y="280.00" text-anchor="middle" transform="rotate(-90 26 280.00)">Altitude (ft)</text>
<path class="rass" d="M927.51,434.54 L881.09,396.81 L849.53,359.08 L818.58,321.35 L787.63,283.62 L744.15,245.89 L680.08,208.16 L604.96,170.43 L542.56,132.70 L512.19,94.97 L496.72,57.24" />
<path class="dalr" d="M1087.43,510.00 L112.57,50.00" />
<circle class="rass-point" cx="927.51" cy="434.54" r="2" />
<circle class="rass-point" cx="881.09" cy="396.81" r="2" />
<circle class="rass-point" cx="849.53" cy="359.08" r="2" />
<circle class="rass-point" cx="818.58" cy="321.35" r="2" />
<circle class="rass-point" cx="787.63" cy="283.62" r="2" />
<circle class="rass-point" cx="744.15" cy="245.89" r="2" />
<circle class="rass-point" cx="680.08" cy="208.16" r="2" />
<circle class="rass-point" cx="604.96" cy="170.43" r="2" />
<circle class="rass-point" cx="542.56" cy="132.70" r="2" />
<circle class="rass-point" cx="512.19" cy="94.97" r="2" />
<circle class="rass-point" cx="496.72" cy="57.24" r="2" />
<rect class="station" x="390.61" y="53.87" width="6" height="6" />
<line class="barb-shaft" x1="393.61" y1="56.87" x2="404.44" y2="71.24" />
<line class="barb-feather" x1="404.44" y1="71.24" x2="397.65" y2="73.86" />
<text class="station-label" x="399.61" y="64.00" text-anchor="start">La Cumbre</text>
<rect class="station" x="359.88" y="103.33" width="6" height="6" />
<line class="barb-shaft" x1="362.88" y1="106.33" x2="369.88" y2="122.91" />
<line class="barb-feather" x1="369.88" y1="122.91" x2="365.73" y2="123.36" />
<text class="station-label" x="368.88" y="110.33" text-anchor="start">VOR</text>
<rect class="station" x="575.16" y="236.18" width="6" height="6" />
<line class="barb-shaft" x1="578.16" y1="239.18" x2="593.33" y2="229.47" />
<line class="barb-feather" x1="593.33" y1="229.47" x2="594.47" y2="233.49" />
<text class="station-label" x="584.16" y="243.18" text-anchor="start">AntFarm</text>
<rect class="station" x="706.53" y="320.80" width="6" height="6" />
<line class="barb-shaft" x1="709.53" y1="323.80" x2="702.49" y2="340.37" />
<line class="barb-feather" x1="702.49" y1="340.37" x2="699.28" y2="337.71" />
<text class="station-label" x="715.53" y="327.80" text-anchor="start">Montecito</text>
<rect class="station" x="751.69" y="335.52" width="6" height="6" />
<line class="barb-shaft" x1="754.69" y1="338.52" x2="764.76" y2="353.44" />
<line class="barb-feather" x1="764.76" y1="353.44" x2="760.77" y2="354.68" />
<text class="station-label" x="760.69" y="342.52" text-anchor="start">SM Pass</text>
<rect class="station" x="908.24" y="417.32" width="6" height="6" />
<circle class="barb-shaft" cx="911.24" cy="420.32" r="2.5" fill="none" />
<text class="station-label" x="917.24" y="424.32" text-anchor="start">Parma</text>
<rect class="station" x="885.25" y="410.07" width="6" height="6" />
<line class="barb-shaft" x1="888.25" y1="413.07" x2="898.08" y2="428.15" />
<line class="barb-feather" x1="898.08" y1="428.15" x2="894.08" y2="429.33" />
<text class="station-label" x="894.25" y="441.07" text-anchor="start">Romero Cyn</text>
<rect class="station" x="941.23" y="505.87" width="6" height="6" />
<line class="barb-shaft" x1="944.23" y1="508.87" x2="926.50" y2="511.99" />
<line class="barb-feather" x1="926.50" y1="511.99" x2="926.99" y2="507.85" />
<text class="station-label" x="950.23" y="510.00" text-anchor="start">Airport</text>
<line class="rass" x1="90" y1="562" x2="114" y2="562" />
<text class="label" x="120" y="566">RASS @ 16:55</text>
<line class="dalr" x1="310" y1="562" x2="334" y2="562" />
<text class="label" x="340" y="566">DALR (5.4 F/1000 ft)</text>
<text class="legend-h" x="90" y="596">Stations</text>
<text class="legend-row" x="90" y="612">La Cumbre @ 17:26 - 45.0F, winds 143, 14g17mph</text>
<text class="legend-row" x="90" y="626">VOR @ 17:10 - 44.3F, winds 157, 8g16mph</text>
<text class="legend-row" x="90" y="640">AntFarm @ 17:10 - 49.1F, winds 057, 6g10mph</text>
<text class="legend-row" x="90" y="654">Montecito @ 16:47 - 52.0F, winds 203, 3g12mph</text>
<text class="legend-row" x="90" y="668">SM Pass @ 17:06 - 53.0F, winds 146, 5g12mph</text>
<text class="legend-row" x="90" y="682">Parma @ 17:10 - 56.5F, winds 177, 1g3mph</text>
<text class="legend-row" x="90" y="696">Romero Cyn @ 17:10 - 56.0F, winds 147, 3g6mph</text>
<text class="legend-row" x="90" y="710">Airport @ 17:10 - 57.2F, winds 260, 5g17mph</text>
</svg>